<svg xmlns="http://www.w3.org/2000/svg" width="69" height="43">
  <path fill-rule="evenodd" d="M1.67 32.129l.007-.198a8.894 8.894 0 0 1 1.032-3.863c.588-1.107 1.328-2.003 2.222-2.686.884-.675 1.745-1.012 2.584-1.012.638 0 1.141.221 1.51.663.315.383.472.852.472 1.408 0 .666-.244 1.322-.731 1.97-.283.373-.584.642-.903.806a.886.886 0 0 1-.42.123.791.791 0 0 1-.359-.082 1.095 1.095 0 0 1-.287-.205c-.169-.178-.253-.338-.253-.479 0-.141.036-.239.11-.294.747-.537 1.255-1.091 1.524-1.66a1.48 1.48 0 0 0 .157-.643c0-.442-.21-.664-.629-.664-.656 0-1.333.358-2.03 1.074-.652.66-1.199 1.49-1.64 2.488-.461 1.025-.705 1.966-.732 2.823l-.007.26c0 1.025.216 1.698.65 2.017.154.114.34.17.556.17.217 0 .42-.027.612-.082a3.33 3.33 0 0 0 .574-.225c.31-.16.707-.435 1.19-.827.146-.114.267-.098.362.048a.703.703 0 0 1 .123.41c0 .26-.035.436-.106.53a1.86 1.86 0 0 1-.362.331c-.17.128-.38.246-.625.356-.575.255-1.138.382-1.689.382-.551 0-.996-.067-1.333-.201a2.317 2.317 0 0 1-.854-.578c-.484-.529-.725-1.249-.725-2.16zm7.93 2.406a1.89 1.89 0 0 1-.452-.694 2.825 2.825 0 0 1-.17-.994c-.005-.383.042-.77.14-1.162a5.727 5.727 0 0 1 1.066-2.16c.253-.32.532-.598.837-.835.666-.51 1.356-.765 2.072-.765.939 0 1.574.412 1.907 1.237.237.597.25 1.32.041 2.167a5.625 5.625 0 0 1-1.053 2.147c-.506.651-1.103 1.114-1.79 1.387a2.85 2.85 0 0 1-1.917.075 1.783 1.783 0 0 1-.681-.403zm1.305-3.315a6.616 6.616 0 0 0-.324 1.039c-.08.355-.118.691-.113 1.008.004.317.053.565.147.745.093.18.245.27.454.27.21 0 .416-.072.619-.215.203-.144.4-.334.591-.57.192-.238.372-.511.54-.821.169-.31.317-.634.445-.97.278-.735.412-1.386.403-1.956 0-.501-.103-.82-.308-.957a.619.619 0 0 0-.345-.082c-.148 0-.318.067-.51.202a3.072 3.072 0 0 0-.573.543 5.7 5.7 0 0 0-.554.8 7.556 7.556 0 0 0-.472.964zm10.411-2.003c-.264 0-.747.383-1.449 1.148a36.686 36.686 0 0 0-1.141 1.347l-.616.78c-.264.5-.471.918-.622 1.25l-.369.793a1.962 1.962 0 0 1-.25.414.364.364 0 0 1-.286.12 1.033 1.033 0 0 1-.64-.232c-.173-.147-.26-.306-.26-.48 0-.068.05-.202.151-.403l.26-.554c.082-.164.177-.373.287-.629l.383-.936c.537-1.344.806-2.213.806-2.605 0-.21-.068-.364-.205-.464l-.136-.096c-.046-.032-.069-.088-.069-.168 0-.08.03-.156.092-.229a.837.837 0 0 1 .243-.191c.205-.105.411-.157.619-.157.207 0 .37.023.489.068a.988.988 0 0 1 .307.185c.173.16.26.326.26.499s-.023.347-.068.523a5.149 5.149 0 0 1-.171.533c-.069.18-.142.354-.22.523a65.9 65.9 0 0 1-.337.721c-.044.089-.056.122-.038.1.834-1.08 1.335-1.719 1.504-1.915.35-.405.624-.683.82-.834.36-.269.7-.403 1.022-.403.321 0 .578.1.77.3.19.201.286.465.286.794 0 .287-.073.624-.218 1.011-.146.388-.244.659-.294.814l1.004-1.326.561-.67c.337-.379.633-.627.889-.745.255-.119.463-.178.625-.178.162 0 .321.03.479.089.157.059.29.143.4.253.232.223.348.52.348.888 0 .356-.082.72-.246 1.094-.164.374-.307.68-.43.92-.124.239-.242.48-.356.72-.333.725-.499 1.263-.499 1.614 0 .246.1.37.3.37.192 0 .366-.042.524-.124.157-.082.258-.123.304-.123.096 0 .143.048.143.144 0 .405-.207.745-.622 1.018-.278.187-.532.28-.762.28-.23 0-.416-.027-.557-.082a1.06 1.06 0 0 1-.383-.26c-.255-.264-.383-.594-.383-.99 0-.397.05-.762.15-1.094.101-.333.22-.656.356-.968.137-.312.275-.599.414-.861.139-.262.245-.47.318-.625.146-.32.218-.554.218-.705 0-.177-.093-.266-.28-.266-.246 0-.688.408-1.326 1.223-.483.634-.818 1.09-1.005 1.368l-.472.683a17.27 17.27 0 0 0-.608 1.251l-.349.793a2.016 2.016 0 0 1-.225.414.322.322 0 0 1-.267.12 1.022 1.022 0 0 1-.608-.199c-.178-.132-.267-.272-.267-.42 0-.148.05-.351.147-.609.098-.257.22-.545.366-.864l.957-2.024c.342-.752.513-1.23.513-1.432 0-.203-.094-.304-.28-.304zm.677 1.928c.005 0 .007-.003.007-.007l.007-.014c-.01.01-.014.016-.014.02zm6.802 3.206c-.01.068-.108.428-.297 1.08-.19.651-.348 1.169-.476 1.551-.287.857-.524 1.39-.71 1.6a.715.715 0 0 1-.547.246c-.26 0-.458-.127-.595-.383a.486.486 0 0 1-.062-.242c0-.09.069-.282.205-.578.36-.752.841-2.233 1.443-4.443.241-.875.4-1.47.478-1.785l.22-.854c.14-.565.224-.95.249-1.152.025-.203.012-.346-.038-.43a.59.59 0 0 0-.17-.192 3.112 3.112 0 0 0-.179-.113c-.054-.032-.077-.09-.068-.174a.399.399 0 0 1 .113-.232.87.87 0 0 1 .25-.182c.204-.095.41-.143.618-.143.207 0 .37.025.489.075.118.05.216.118.294.205.164.178.237.351.218.52-.045.35-.095.651-.15.902.798-1.135 1.625-1.702 2.482-1.702.779 0 1.3.403 1.565 1.21.091.282.137.626.137 1.032s-.062.812-.185 1.22c-.123.408-.29.794-.499 1.159-.21.364-.453.7-.731 1.008a5.909 5.909 0 0 1-.882.803c-.656.474-1.276.711-1.86.711-.583 0-1.02-.239-1.312-.717zm1.053-2.913a6.326 6.326 0 0 0-.4.958c-.103.319-.154.61-.154.875 0 .264.057.481.17.652.115.171.283.257.507.257.223 0 .445-.06.666-.181.221-.121.435-.284.643-.49.207-.204.4-.445.58-.72.18-.276.337-.569.47-.879.286-.674.43-1.315.43-1.92 0-.329-.044-.584-.13-.766-.087-.183-.22-.274-.4-.274-.18 0-.368.07-.564.209a4.103 4.103 0 0 0-.615.553 8.28 8.28 0 0 0-1.203 1.726zm10.712 1.744c0 .419.148.629.444.629.205 0 .375-.032.51-.096.134-.064.224-.096.27-.096.095 0 .143.05.143.15 0 .392-.205.73-.615 1.012-.433.296-.875.37-1.327.219-.296-.105-.515-.33-.656-.677a1.366 1.366 0 0 1-.102-.485c0-.237.022-.488.068-.752-.424.866-.95 1.463-1.58 1.791-.25.128-.516.191-.799.191a1.48 1.48 0 0 1-.735-.174 1.616 1.616 0 0 1-.53-.482c-.296-.428-.43-.966-.403-1.613.027-.811.267-1.607.718-2.386a5.576 5.576 0 0 1 1.572-1.784c.634-.47 1.226-.704 1.777-.704.552 0 .996.253 1.333.759.315-.506.593-.76.834-.76.26 0 .456.049.588.144.251.183.34.342.267.479-1.144 2.342-1.732 3.8-1.764 4.375-.009.082-.013.168-.013.26zm-3.794.027c0 .547.175.82.526.82.269 0 .6-.228.991-.683.574-.67 1.083-1.573 1.525-2.707.14-.356.26-.711.355-1.067-.018-.31-.148-.537-.39-.683-.082-.05-.204-.076-.365-.076-.162 0-.351.06-.568.178-.216.119-.426.28-.629.486a4.197 4.197 0 0 0-.567.728c-.175.28-.33.584-.461.912a5.647 5.647 0 0 0-.417 2.092zm11.026-3.992c-.141 0-.342.135-.602.407-.26.27-.485.518-.676.741l-.581.698-1.121 1.428c-.265.502-.472.919-.623 1.251l-.369.793a1.962 1.962 0 0 1-.25.414.364.364 0 0 1-.286.12 1.033 1.033 0 0 1-.64-.232c-.173-.147-.26-.306-.26-.48 0-.068.05-.202.151-.403l.26-.554c.082-.164.178-.373.287-.629l.383-.936c.538-1.344.806-2.213.806-2.605 0-.21-.068-.364-.205-.464l-.136-.096c-.046-.032-.069-.088-.069-.168 0-.08.031-.156.093-.229a.837.837 0 0 1 .242-.191c.205-.105.412-.157.619-.157.207 0 .368.023.482.068.114.046.21.107.287.185.169.16.253.326.253.499s-.022.347-.065.523a5.078 5.078 0 0 1-.164.533 12.19 12.19 0 0 1-.407.98l-.137.295c-.036.073-.045.096-.027.068.506-.702.839-1.153.998-1.353l.479-.575c.35-.41.626-.68.827-.813.405-.273.724-.41.957-.41.232 0 .428.03.588.089.16.059.298.143.417.253.25.232.376.528.376.888s-.082.736-.246 1.128c-.164.392-.307.71-.428.954-.12.244-.235.49-.345.742-.342.76-.513 1.314-.513 1.66 0 .156.124.233.37.233.191 0 .365-.04.523-.123.157-.082.258-.123.304-.123.095 0 .143.048.143.144 0 .405-.207.745-.622 1.018-.278.187-.533.28-.765.28a1.88 1.88 0 0 1-.578-.075 1.098 1.098 0 0 1-.407-.24c-.269-.24-.403-.578-.403-1.01 0-.53.166-1.19.499-1.983.241-.543.412-.914.513-1.114l.232-.486c.141-.292.212-.522.212-.69 0-.169-.125-.253-.376-.253zm2.912 5.12a1.505 1.505 0 0 1-.082-.516c0-.194.033-.41.1-.65.065-.239.15-.488.256-.748.104-.26.218-.527.341-.8l.37-.82c.473-1.053.649-1.677.526-1.873-.055-.087-.157-.173-.308-.26-.054-.032-.082-.088-.082-.168 0-.08.033-.156.1-.229a.908.908 0 0 1 .256-.191c.223-.105.446-.157.67-.157.223 0 .393.024.509.072.116.047.21.108.284.18.15.151.225.317.225.5 0 .182-.03.386-.089.612-.059.225-.136.47-.232.734-.096.265-.2.538-.315.82a67.68 67.68 0 0 1-.635 1.464l-.253.526c-.142.314-.212.535-.212.663s.02.218.061.27c.041.053.115.079.223.079a.68.68 0 0 0 .355-.123 3.1 3.1 0 0 0 .42-.328 6.65 6.65 0 0 0 .469-.476c.161-.18.32-.368.475-.564.405-.5.706-.931.902-1.291.984-1.814 1.506-2.762 1.566-2.844.15-.196.301-.294.454-.294.153 0 .286.017.4.051a.89.89 0 0 1 .294.147c.182.132.238.28.167.444-.07.164-.156.39-.256.677-.866 2.511-1.427 4.077-1.685 4.696-.257.62-.482 1.118-.673 1.494-.192.376-.416.755-.674 1.138a8.554 8.554 0 0 1-.823 1.046c-.666.711-1.29 1.092-1.873 1.142-.224.018-.401-.014-.534-.096-.227-.137-.341-.267-.341-.39s.103-.208.31-.256c.208-.048.422-.143.643-.287.221-.144.434-.311.64-.502a6.672 6.672 0 0 0 1.4-1.874 14.2 14.2 0 0 0 .684-1.681l.534-1.627c-.133.16-.278.346-.438.56l-.492.657c-.429.542-.784.927-1.067 1.155-.537.433-1.018.65-1.442.65-.565 0-.941-.244-1.128-.732zM20.094 5.16L2.574 24.147.37 22.113 20 .84l10.537 10.457 19.806-8.22 18.477 37.696-2.694 1.32L48.888 6.929l-19.047 7.905-9.747-9.673z"/>
</svg>